<svg xmlns="http://www.w3.org/2000/svg" width="48" height="48" viewBox="0 0 48 48">
  <path d="M8,9 H29 A3,3 0 0 1 32,12 V23 A3,3 0 0 1 29,26 H8 A3,3 0 0 1 5,23 V12 A3,3 0 0 1 8,9 Z" fill="none" stroke="#000000" stroke-width="3.5" stroke-linecap="round" stroke-linejoin="round"/>
  <path d="M14.0,17.5 A4.5,4.5 0 1 0 23.0,17.5 A4.5,4.5 0 1 0 14.0,17.5 Z" fill="none" stroke="#000000" stroke-width="3.5" stroke-linecap="round" stroke-linejoin="round"/>
  <path d="M37 12 L43 9 M37 17.5 H44 M37 23 L43 26" fill="none" stroke="#000000" stroke-width="3.5" stroke-linecap="round" stroke-linejoin="round"/>
  <path d="M18.5 26 V42 M11 42 H26" fill="none" stroke="#000000" stroke-width="3.5" stroke-linecap="round" stroke-linejoin="round"/>
</svg>
